<svg width="87" height="28" viewBox="0 0 87 28" fill="none" xmlns="http://www.w3.org/2000/svg">
<g clip-path="url(#clip0_229_288)">
<path d="M4.46179 5C4.06736 5 3.68909 5.10536 3.41019 5.29289C3.13129 5.48043 2.97461 5.73478 2.97461 6C2.97461 6.26522 3.13129 6.51957 3.41019 6.70711C3.68909 6.89464 4.06736 7 4.46179 7H6.27615L6.72974 8.222C6.73424 8.23607 6.7392 8.25007 6.74461 8.264L8.7642 13.694L7.43615 14.586C5.5623 15.846 6.88887 18 9.53902 18H22.3079C22.7024 18 23.0806 17.8946 23.3595 17.7071C23.6384 17.5196 23.7951 17.2652 23.7951 17C23.7951 16.7348 23.6384 16.4804 23.3595 16.2929C23.0806 16.1054 22.7024 16 22.3079 16H9.53902L11.0262 15H20.8208C21.0969 14.9999 21.3675 14.9481 21.6023 14.8504C21.8371 14.7528 22.0269 14.6131 22.1503 14.447L26.6118 8.447C26.7251 8.29458 26.7786 8.12522 26.7672 7.95501C26.7558 7.78479 26.6799 7.61935 26.5467 7.47439C26.4135 7.32944 26.2274 7.20977 26.0062 7.12674C25.7849 7.04372 25.5357 7.00009 25.2823 7H9.33974L8.87871 5.757C8.79815 5.54075 8.61244 5.34881 8.35107 5.21166C8.08971 5.0745 7.76768 5.00001 7.43615 5H4.46179ZM23.7951 20.5C23.7951 20.8978 23.5601 21.2794 23.1417 21.5607C22.7234 21.842 22.156 22 21.5644 22C20.9727 22 20.4053 21.842 19.987 21.5607C19.5686 21.2794 19.3336 20.8978 19.3336 20.5C19.3336 20.1022 19.5686 19.7206 19.987 19.4393C20.4053 19.158 20.9727 19 21.5644 19C22.156 19 22.7234 19.158 23.1417 19.4393C23.5601 19.7206 23.7951 20.1022 23.7951 20.5ZM9.66692 22C10.2586 22 10.826 21.842 11.2443 21.5607C11.6627 21.2794 11.8977 20.8978 11.8977 20.5C11.8977 20.1022 11.6627 19.7206 11.2443 19.4393C10.826 19.158 10.2586 19 9.66692 19C9.07528 19 8.50787 19.158 8.08952 19.4393C7.67117 19.7206 7.43615 20.1022 7.43615 20.5C7.43615 20.8978 7.67117 21.2794 8.08952 21.5607C8.50787 21.842 9.07528 22 9.66692 22Z" fill="black"/>
<g clip-path="url(#clip1_229_288)">
<path d="M33.5401 20V6.90909H36.3079V17.718H41.9201V20H33.5401ZM48.138 20.1918C47.1451 20.1918 46.2864 19.9808 45.562 19.5589C44.8418 19.1328 44.2857 18.5405 43.8936 17.782C43.5016 17.0192 43.3056 16.1349 43.3056 15.1293C43.3056 14.1151 43.5016 13.2287 43.8936 12.4702C44.2857 11.7074 44.8418 11.1151 45.562 10.6932C46.2864 10.267 47.1451 10.054 48.138 10.054C49.1309 10.054 49.9874 10.267 50.7076 10.6932C51.432 11.1151 51.9902 11.7074 52.3823 12.4702C52.7743 13.2287 52.9703 14.1151 52.9703 15.1293C52.9703 16.1349 52.7743 17.0192 52.3823 17.782C51.9902 18.5405 51.432 19.1328 50.7076 19.5589C49.9874 19.9808 49.1309 20.1918 48.138 20.1918ZM48.1507 18.0824C48.6025 18.0824 48.9796 17.9545 49.2821 17.6989C49.5847 17.4389 49.8127 17.0852 49.9661 16.6378C50.1238 16.1903 50.2026 15.6811 50.2026 15.1101C50.2026 14.5391 50.1238 14.0298 49.9661 13.5824C49.8127 13.1349 49.5847 12.7812 49.2821 12.5213C48.9796 12.2614 48.6025 12.1314 48.1507 12.1314C47.6948 12.1314 47.3113 12.2614 47.0002 12.5213C46.6934 12.7812 46.4611 13.1349 46.3034 13.5824C46.15 14.0298 46.0733 14.5391 46.0733 15.1101C46.0733 15.6811 46.15 16.1903 46.3034 16.6378C46.4611 17.0852 46.6934 17.4389 47.0002 17.6989C47.3113 17.9545 47.6948 18.0824 48.1507 18.0824ZM59.1642 23.8864C58.2821 23.8864 57.5257 23.7649 56.8951 23.522C56.2686 23.2834 55.7701 22.9574 55.3993 22.544C55.0286 22.1307 54.7878 21.6662 54.677 21.1506L57.1955 20.8118C57.2722 21.0078 57.3936 21.1911 57.5598 21.3615C57.726 21.532 57.9455 21.6683 58.2182 21.7706C58.4952 21.8771 58.8319 21.9304 59.2282 21.9304C59.8205 21.9304 60.3084 21.7855 60.6919 21.4957C61.0797 21.2102 61.2736 20.7308 61.2736 20.0575V18.2614H61.1586C61.0392 18.5341 60.8603 18.7919 60.6216 19.0348C60.383 19.2777 60.0762 19.4759 59.7012 19.6293C59.3262 19.7827 58.8787 19.8594 58.3588 19.8594C57.6216 19.8594 56.9505 19.6889 56.3453 19.348C55.7445 19.0028 55.2651 18.4766 54.9071 17.7692C54.5534 17.0575 54.3766 16.1584 54.3766 15.0717C54.3766 13.9595 54.5577 13.0305 54.9199 12.2848C55.2821 11.5391 55.7637 10.9808 56.3645 10.6101C56.9696 10.2393 57.6323 10.054 58.3525 10.054C58.9022 10.054 59.3624 10.1477 59.7331 10.3352C60.1039 10.5185 60.4022 10.7486 60.628 11.0256C60.8581 11.2983 61.035 11.5668 61.1586 11.831H61.2608V10.1818H63.9647V20.0959C63.9647 20.9311 63.7601 21.63 63.351 22.1925C62.9419 22.755 62.3752 23.1768 61.6507 23.4581C60.9306 23.7436 60.1017 23.8864 59.1642 23.8864ZM59.2218 17.8139C59.6607 17.8139 60.0314 17.7053 60.334 17.4879C60.6408 17.2663 60.8752 16.951 61.0371 16.5419C61.2033 16.1286 61.2864 15.6342 61.2864 15.0589C61.2864 14.4837 61.2054 13.9851 61.0435 13.5632C60.8816 13.1371 60.6472 12.8068 60.3404 12.5724C60.0336 12.3381 59.6607 12.2209 59.2218 12.2209C58.7743 12.2209 58.3972 12.3423 58.0904 12.5852C57.7836 12.8239 57.5513 13.1562 57.3936 13.5824C57.236 14.0085 57.1571 14.5007 57.1571 15.0589C57.1571 15.6257 57.236 16.1158 57.3936 16.5291C57.5556 16.9382 57.7878 17.2557 58.0904 17.4815C58.3972 17.7031 58.7743 17.8139 59.2218 17.8139ZM70.5676 20.1918C69.5748 20.1918 68.7161 19.9808 67.9917 19.5589C67.2715 19.1328 66.7154 18.5405 66.3233 17.782C65.9313 17.0192 65.7353 16.1349 65.7353 15.1293C65.7353 14.1151 65.9313 13.2287 66.3233 12.4702C66.7154 11.7074 67.2715 11.1151 67.9917 10.6932C68.7161 10.267 69.5748 10.054 70.5676 10.054C71.5605 10.054 72.4171 10.267 73.1373 10.6932C73.8617 11.1151 74.4199 11.7074 74.812 12.4702C75.204 13.2287 75.4 14.1151 75.4 15.1293C75.4 16.1349 75.204 17.0192 74.812 17.782C74.4199 18.5405 73.8617 19.1328 73.1373 19.5589C72.4171 19.9808 71.5605 20.1918 70.5676 20.1918ZM70.5804 18.0824C71.0321 18.0824 71.4093 17.9545 71.7118 17.6989C72.0144 17.4389 72.2424 17.0852 72.3958 16.6378C72.5534 16.1903 72.6323 15.6811 72.6323 15.1101C72.6323 14.5391 72.5534 14.0298 72.3958 13.5824C72.2424 13.1349 72.0144 12.7812 71.7118 12.5213C71.4093 12.2614 71.0321 12.1314 70.5804 12.1314C70.1245 12.1314 69.7409 12.2614 69.4299 12.5213C69.123 12.7812 68.8908 13.1349 68.7331 13.5824C68.5797 14.0298 68.503 14.5391 68.503 15.1101C68.503 15.6811 68.5797 16.1903 68.7331 16.6378C68.8908 17.0852 69.123 17.4389 69.4299 17.6989C69.7409 17.9545 70.1245 18.0824 70.5804 18.0824Z" fill="black"/>
</g>
</g>
<defs>
<clipPath id="clip0_229_288">
<rect width="87" height="27" fill="white" transform="translate(0 0.5)"/>
</clipPath>
<clipPath id="clip1_229_288">
<rect width="66.9231" height="27" fill="white" transform="translate(29.7432 0.5)"/>
</clipPath>
</defs>
</svg>
